# xmcd
#
# Track frame offsets: 
#        150
#        2255
#        19775
#        39984
#        62938
#        82515
#        109306
#        128386
#        150951
#        164408
#        184526
#        188754
#        209609
#        226633
#        251969
#
# Disc length: 3387 seconds
#
# Revision: 1
# Processed by: cddbd v1.5.2PL0 Copyright (c) Steve Scherf et al.
# Submitted via: ExactAudioCopyFreeDBPlugin 1.0
#
DISCID=a90d390f
DTITLE=Superjanne - Munkkisaari
DYEAR=2010
DGENRE=Rap
TTITLE0=Intro
TTITLE1=Soulm‰‰n
TTITLE2=Mik‰ Duuni
TTITLE3=Stadi On Snadi
TTITLE4=Onni On (feat. Sanna Vakkilainen)
TTITLE5=Et Mua Kiinni Saa (feat. Niina Koponen)
TTITLE6=Miss‰, Miten and Milloin (feat. Minzi Da Vinci)
TTITLE7=Kaikki Muuttuu
TTITLE8=DHNN
TTITLE9=Rahamies
TTITLE10=Divine Plan (skit)
TTITLE11=Yhess‰ Aina
TTITLE12=J‰‰r‰p‰‰t (feat. Sanna Vakkilainen)
TTITLE13=Kaikille Teille
TTITLE14=Outro
EXTD=
EXTT0=
EXTT1=
EXTT2=
EXTT3=
EXTT4=
EXTT5=
EXTT6=
EXTT7=
EXTT8=
EXTT9=
EXTT10=
EXTT11=
EXTT12=
EXTT13=
EXTT14=
PLAYORDER=
